<svg xmlns="http://www.w3.org/2000/svg" width="1600" height="800" viewBox="0 0 1600 800">
  <defs>
    <radialGradient id="glow"><stop stop-color="#00d9a0" stop-opacity=".16"/><stop offset="1" stop-color="#00d9a0" stop-opacity="0"/></radialGradient>
    <linearGradient id="area" x2="0" y2="1"><stop stop-color="#00d9a0" stop-opacity=".2"/><stop offset="1" stop-color="#00d9a0" stop-opacity="0"/></linearGradient>
    <pattern id="grid" width="48" height="48" patternUnits="userSpaceOnUse"><path d="M48 0H0v48" fill="none" stroke="#19342f" stroke-opacity=".28"/></pattern>
  </defs>
  <rect width="1600" height="800" fill="#040d12"/>
  <rect width="1600" height="800" fill="url(#grid)"/>
  <ellipse cx="1040" cy="250" rx="650" ry="480" fill="url(#glow)"/>
  <rect x="240" y="110" width="1120" height="480" rx="24" fill="#061119" stroke="#1d4039"/>
  <path d="M240 173h1120M454 173v417" stroke="#1d4039"/>
  <g fill="#00d9a0"><circle cx="273" cy="142" r="5"/><circle cx="293" cy="142" r="5" opacity=".5"/><circle cx="313" cy="142" r="5" opacity=".2"/></g>
  <text x="344" y="149" fill="#d1fbed" font-family="monospace" font-weight="700" font-size="20">FINANCE // CORE</text>
  <text x="1286" y="148" fill="#7daca0" text-anchor="end" font-family="monospace" font-size="13">PRIVADO / DEMO</text>
  <g fill="#0b2527" stroke="#1c4942"><rect x="264" y="211" width="166" height="46" rx="10"/><rect x="486" y="212" width="252" height="96" rx="12"/><rect x="758" y="212" width="252" height="96" rx="12"/><rect x="1030" y="212" width="296" height="96" rx="12"/></g>
  <g fill="#9bb7af" font-family="monospace" font-size="15"><text x="284" y="240">RESUMEN</text><text x="284" y="290">CUENTAS</text><text x="284" y="339">IMPORTACIONES</text><text x="284" y="388">PLANIFICACIÓN</text><text x="284" y="437">CRIPTO</text><text x="507" y="242">CUENTAS</text><text x="779" y="242">GASTOS</text><text x="1051" y="242">OBJETIVOS DE AHORRO</text></g>
  <g fill="#00d9a0"><rect x="508" y="269" width="138" height="8" rx="4"/><rect x="780" y="269" width="98" height="8" rx="4" opacity=".7"/><rect x="1052" y="269" width="180" height="8" rx="4"/></g>
  <g stroke="#193a33"><path d="M488 366h838M488 421h838M488 476h838M488 531h838"/></g>
  <path d="M490 491l90-19 88 14 93-58 88 14 97-69 88 21 97-46 101 12 93-30v216H490Z" fill="url(#area)"/>
  <path d="M490 491l90-19 88 14 93-58 88 14 97-69 88 21 97-46 101 12 93-30" fill="none" stroke="#00d9a0" stroke-width="4" stroke-linecap="round" stroke-linejoin="round"/>
  <text x="800" y="645" text-anchor="middle" fill="#63958a" font-family="monospace" font-size="14" letter-spacing="3">REACT / FASTAPI / CÓDIGO PRIVADO</text>
</svg>
